<?xml version="1.0" standalone="no"?><!DOCTYPE svg PUBLIC "-//W3C//DTD SVG 1.1//EN" "http://www.w3.org/Graphics/SVG/1.1/DTD/svg11.dtd"><svg t="1539063357382" class="icon" style="" viewBox="0 0 1024 1024" version="1.1" xmlns="http://www.w3.org/2000/svg" p-id="9947" xmlns:xlink="http://www.w3.org/1999/xlink" width="128" height="128"><defs><style type="text/css"></style></defs><path d="M1019.392 517.632v505.856l-156.16-39.424V826.88L512 708.608V590.336h-38.912v-78.848l-217.6 51.2 83.456-88.576-8.192-50.176c-6.656 20.48-17.92 34.304-32.256 36.352-30.208 5.12-62.976-42.496-73.216-105.984-9.216-58.88 4.096-111.104 30.72-121.856l-84.48-100.864-6.656-2.56L45.056 148.48l1.024 28.672 82.432-13.312 21.504 133.632-44.032 6.144-97.792-107.52-3.072-80.384 87.552-13.824 56.832-9.216 50.176-8.192L728.064 0.512l61.952 23.552 92.16 161.792-565.76 90.624c5.12 10.24 9.728 22.016 13.312 34.816L835.072 230.4l27.136 168.96-84.992 80.384L629.76 512v78.848h-38.912v78.848l273.408 78.848V551.936l155.136-34.304z m-747.52-221.184c-13.312 2.048-19.968 26.112-15.872 53.248 4.608 27.648 18.432 48.128 31.744 46.08 13.312-2.048 19.968-26.112 15.872-53.248-4.096-27.648-18.432-48.128-31.744-46.08z m-87.552 186.88l-26.112-164.864-38.4 6.144 29.184 181.76 98.304 60.928 29.184-26.624-92.16-57.344z" p-id="9948" fill="#515151"></path></svg>