<?xml version="1.0" standalone="no"?><!DOCTYPE svg PUBLIC "-//W3C//DTD SVG 1.1//EN" "http://www.w3.org/Graphics/SVG/1.1/DTD/svg11.dtd"><svg t="1539063601103" class="icon" style="" viewBox="0 0 1024 1024" version="1.1" xmlns="http://www.w3.org/2000/svg" p-id="10856" xmlns:xlink="http://www.w3.org/1999/xlink" width="128" height="128"><defs><style type="text/css"></style></defs><path d="M753.7 293.2s18.3-44.5-55.4-37.3l-3.4 57s49.3 9.7 58.8-19.7z" p-id="10857"></path><path d="M958.3 577.5L892.1 91.6C889.9 75.8 876.4 64 860.5 64H162.1c-15.9 0-29.4 11.7-31.7 27.4L62.3 577.5h0.7l-0.7 0.8v345.2c0 20.2 16.4 36.6 36.6 36.6h822.8c20.2 0 36.6-16.4 36.6-36.6V578.3l-0.7-0.8h0.7zM663.5 223.8l78.5 0.2c55.8 0.2 64.9 41.4 64.9 41.4 12.5 63-56.2 69.5-48.2 69.5s17.5 6.8 17.5 6.8l69.1 82.6h-60.4l-43.7-58.7c-15.2-25.8-42.9-17.8-42.9-17.8l-5.7 76.5h-53.9l24.8-200.5z m-195.2 0l44.5 158.5 49.4-158.5h46.7l-67.6 200.5h-61.1l-57.9-200.5h46z m-265.5 0h45.8l100.8 144.1-6.2-144.1h39.6l20.4 200.5h-55.4l-109.3-146-11.8 146h-51.3l27.4-200.5z m691.5 672.3h-768V577.5h768v318.6z" p-id="10858"></path><path d="M211.9 704h84.8c11.9 0 21.6-9.8 21.6-21.8v-20.4c0-12-9.7-21.8-21.6-21.8h-84.8c-11.9 0-21.6 9.8-21.6 21.8v20.4c0 12.1 9.7 21.8 21.6 21.8zM211.9 832h84.8c11.9 0 21.6-9.8 21.6-21.8v-20.4c0-12-9.7-21.8-21.6-21.8h-84.8c-11.9 0-21.6 9.8-21.6 21.8v20.4c0 12.1 9.7 21.8 21.6 21.8zM414 704h0.7c17.5 0 31.7-14.3 31.7-32s-14.2-32-31.7-32h-0.7c-17.5 0-31.7 14.3-31.7 32v0.1c0 17.6 14.2 31.9 31.7 31.9zM414 831.7h0.7c17.5 0 31.7-14.3 31.7-32v-0.1c0-17.7-14.2-32-31.7-32h-0.7c-17.5 0-31.7 14.3-31.7 32v0.1c0 17.8 14.2 32 31.7 32zM542 704h0.7c17.5 0 31.7-14.3 31.7-32s-14.2-32-31.7-32h-0.7c-17.5 0-31.7 14.3-31.7 32v0.1c0 17.6 14.2 31.9 31.7 31.9zM541.5 832h0.7c17.5 0 31.7-14.3 31.7-32s-14.2-32-31.7-32h-0.7c-17.5 0-31.7 14.3-31.7 32v0.1c0 17.7 14.2 31.9 31.7 31.9zM670 704h0.7c17.5 0 31.7-14.3 31.7-32s-14.2-32-31.7-32h-0.7c-17.5 0-31.7 14.3-31.7 32v0.1c0 17.6 14.2 31.9 31.7 31.9zM670 832h0.7c17.5 0 31.7-14.3 31.7-32s-14.2-32-31.7-32h-0.7c-17.5 0-31.7 14.3-31.7 32v0.1c0 17.7 14.2 31.9 31.7 31.9zM798 704h0.7c17.5 0 31.7-14.3 31.7-32s-14.2-32-31.7-32h-0.7c-17.5 0-31.7 14.3-31.7 32v0.1c0 17.6 14.2 31.9 31.7 31.9zM798 832h0.7c17.5 0 31.7-14.3 31.7-32s-14.2-32-31.7-32h-0.7c-17.5 0-31.7 14.3-31.7 32v0.1c0 17.7 14.2 31.9 31.7 31.9z" p-id="10859"></path></svg>