<?xml version="1.0" standalone="no"?><!DOCTYPE svg PUBLIC "-//W3C//DTD SVG 1.1//EN" "http://www.w3.org/Graphics/SVG/1.1/DTD/svg11.dtd"><svg t="1539220010308" class="icon" style="" viewBox="0 0 1024 1024" version="1.1" xmlns="http://www.w3.org/2000/svg" p-id="5283" xmlns:xlink="http://www.w3.org/1999/xlink" width="240" height="240"><defs><style type="text/css"></style></defs><path d="M791.110959 685.056801a219.14431 219.14431 0 1 0-268.086539 0A365.240517 365.240517 0 0 0 292.192413 1024h73.048104a292.192413 292.192413 0 0 1 584.384826 0h73.048103a365.240517 365.240517 0 0 0-231.562487-338.943199zM657.43293 658.759483a146.096207 146.096207 0 1 1 146.096206-146.096206 146.096207 146.096207 0 0 1-146.096206 146.096206zM392.268315 391.403425a292.192413 292.192413 0 0 1 38.715495-61.360407l-18.262026-10.226734a182.620258 182.620258 0 1 0-241.058741 0A292.192413 292.192413 0 0 0 0 585.71138h73.048103a219.14431 219.14431 0 0 1 219.14431-219.14431 219.14431 219.14431 0 0 1 100.075902 24.836355zM182.620258 183.946812A109.572155 109.572155 0 1 1 292.192413 293.518967a109.572155 109.572155 0 0 1-109.572155-109.572155z" p-id="5284" fill="#003ea3"></path></svg>